<mxfile host="app.diagrams.net" modified="2022-09-29T18:27:42.331Z" agent="5.0 (Windows NT 10.0; Win64; x64) AppleWebKit/537.36 (KHTML, like Gecko) Chrome/105.0.0.0 Safari/537.36" etag="WIRkC-MjRICATjEYtNQq" version="20.3.7" type="github">
  <diagram id="Asj_OvlAV7eRFMY_503B" name="Page-1">
    <mxGraphModel dx="782" dy="460" grid="1" gridSize="10" guides="1" tooltips="1" connect="1" arrows="1" fold="1" page="1" pageScale="1" pageWidth="850" pageHeight="1100" math="0" shadow="0">
      <root>
        <mxCell id="0" />
        <mxCell id="1" parent="0" />
        <mxCell id="feJvAz9ZvgBtIoRs770C-3" style="edgeStyle=orthogonalEdgeStyle;rounded=0;orthogonalLoop=1;jettySize=auto;html=1;exitX=1;exitY=0.25;exitDx=0;exitDy=0;entryX=0;entryY=0.25;entryDx=0;entryDy=0;" edge="1" parent="1" source="LIPbDDBm2kCoPktOWhKg-1" target="feJvAz9ZvgBtIoRs770C-2">
          <mxGeometry relative="1" as="geometry" />
        </mxCell>
        <mxCell id="LIPbDDBm2kCoPktOWhKg-1" value="Raw Data&lt;br&gt;Metadata" style="rounded=0;whiteSpace=wrap;html=1;fillColor=#d5e8d4;strokeColor=#82b366;" parent="1" vertex="1">
          <mxGeometry x="40" y="60" width="120" height="70" as="geometry" />
        </mxCell>
        <mxCell id="feJvAz9ZvgBtIoRs770C-4" style="edgeStyle=orthogonalEdgeStyle;rounded=0;orthogonalLoop=1;jettySize=auto;html=1;exitX=0;exitY=0.75;exitDx=0;exitDy=0;entryX=1;entryY=0.75;entryDx=0;entryDy=0;" edge="1" parent="1" source="feJvAz9ZvgBtIoRs770C-2" target="LIPbDDBm2kCoPktOWhKg-1">
          <mxGeometry relative="1" as="geometry" />
        </mxCell>
        <mxCell id="feJvAz9ZvgBtIoRs770C-7" style="edgeStyle=orthogonalEdgeStyle;rounded=0;orthogonalLoop=1;jettySize=auto;html=1;exitX=1;exitY=0.25;exitDx=0;exitDy=0;entryX=0.5;entryY=0;entryDx=0;entryDy=0;" edge="1" parent="1" source="feJvAz9ZvgBtIoRs770C-2" target="feJvAz9ZvgBtIoRs770C-6">
          <mxGeometry relative="1" as="geometry" />
        </mxCell>
        <mxCell id="feJvAz9ZvgBtIoRs770C-2" value="COPY: Raw Data&lt;br&gt;Metadata" style="rounded=0;whiteSpace=wrap;html=1;strokeColor=#82b366;fillColor=#d5e8d4;" vertex="1" parent="1">
          <mxGeometry x="420" y="60" width="120" height="70" as="geometry" />
        </mxCell>
        <mxCell id="feJvAz9ZvgBtIoRs770C-5" value="Secure, Read-only backup" style="text;html=1;strokeColor=none;fillColor=none;align=center;verticalAlign=middle;whiteSpace=wrap;rounded=0;" vertex="1" parent="1">
          <mxGeometry x="200" y="50" width="190" height="30" as="geometry" />
        </mxCell>
        <mxCell id="feJvAz9ZvgBtIoRs770C-6" value="Public GitHub Repository Includes:&lt;br&gt;&lt;b&gt;Documentation&lt;br&gt;Links to Raw data + Metadata&lt;br&gt;Code&lt;/b&gt;" style="rounded=0;whiteSpace=wrap;html=1;strokeColor=#82b366;fillColor=#d5e8d4;" vertex="1" parent="1">
          <mxGeometry x="670" y="340" width="120" height="120" as="geometry" />
        </mxCell>
        <mxCell id="feJvAz9ZvgBtIoRs770C-9" value="" style="edgeStyle=orthogonalEdgeStyle;rounded=0;orthogonalLoop=1;jettySize=auto;html=1;" edge="1" parent="1" source="feJvAz9ZvgBtIoRs770C-8" target="feJvAz9ZvgBtIoRs770C-6">
          <mxGeometry relative="1" as="geometry" />
        </mxCell>
        <mxCell id="feJvAz9ZvgBtIoRs770C-8" value="Final Workflow" style="rounded=0;whiteSpace=wrap;html=1;strokeColor=#82b366;fillColor=#d5e8d4;" vertex="1" parent="1">
          <mxGeometry x="470" y="370" width="120" height="60" as="geometry" />
        </mxCell>
        <mxCell id="feJvAz9ZvgBtIoRs770C-10" value="Internal Review" style="ellipse;whiteSpace=wrap;html=1;strokeColor=#9673a6;fillColor=#e1d5e7;" vertex="1" parent="1">
          <mxGeometry x="480" y="500" width="80" height="60" as="geometry" />
        </mxCell>
        <mxCell id="feJvAz9ZvgBtIoRs770C-11" value="Informal External Review" style="ellipse;whiteSpace=wrap;html=1;strokeColor=#9673a6;fillColor=#e1d5e7;" vertex="1" parent="1">
          <mxGeometry x="355" y="500" width="80" height="60" as="geometry" />
        </mxCell>
        <mxCell id="feJvAz9ZvgBtIoRs770C-12" value="Formal Peer Review" style="ellipse;whiteSpace=wrap;html=1;strokeColor=#9673a6;fillColor=#e1d5e7;" vertex="1" parent="1">
          <mxGeometry x="230" y="500" width="80" height="60" as="geometry" />
        </mxCell>
      </root>
    </mxGraphModel>
  </diagram>
</mxfile>
